<?xml version="1.0" encoding="UTF-8"?>
<svg width="193px" height="55px" viewBox="0 0 193 55" version="1.1" xmlns="http://www.w3.org/2000/svg" xmlns:xlink="http://www.w3.org/1999/xlink">
    <title>apesafari logo</title>
    <g id="Page-1" stroke="none" stroke-width="1" fill="none" fill-rule="evenodd">
        <g id="iPhone-13-Pro-Max" transform="translate(-118, -19)" fill="#FA6400" stroke="#000000" stroke-width="2">
            <g id="header">
                <path d="M305.591634,30.593104 C306.397823,30.4917468 307.02733,31.3041714 307.513537,32.5761944 C308.645124,35.5366705 310,50.6382742 310,53.6097662 C310,55.7600477 309.860489,57.3392998 309.000501,57.4369114 C307.943473,57.5568877 307.095922,56.4916906 306.441424,54.7072148 C305.685636,52.6465768 303.627556,36.1016432 303.993402,33.0640242 C304.168895,31.6069079 304.722015,30.7024358 305.591634,30.593104 Z M303.291041,20.8774064 C303.86786,20.2897847 305.098204,20.3149668 306.129086,20.8774064 C307.159968,21.439846 307.521383,22.330903 306.975115,22.8874027 C306.428846,23.4439023 304.874367,23.3916039 303.950229,22.8874027 C303.026091,22.3832014 302.714223,21.4650281 303.291041,20.8774064 Z M288.670837,36.7816466 C289.866841,37.0262433 298.368704,26.2632821 300.689003,28.8468237 C302.853463,31.2568463 293.099554,37.3290175 290.580188,43.5134423 C289.132393,47.0674235 291.620791,57.0905901 289.132393,57.4120096 C285.219646,57.9174083 285.482664,52.7619619 284.805281,44.4999529 C283.926876,33.7860876 283.104801,30.2725487 286.153826,30.2725487 C289.202851,30.2725487 287.474117,36.2924532 288.670837,36.7816466 Z M265.898588,34.5699135 C268.555026,29.6998738 273.160813,27.9643984 276.437123,28.5579017 C278.372465,29.1692452 279.515013,33.7365398 279.864768,42.2597857 C280.268195,53.4762354 279.770373,59.1942301 278.371302,59.41377 C274.401751,60.1729908 274.588086,47.3191616 273.898404,45.4468784 C273.345289,46.3414018 271.618838,48.82397 268.719318,52.8947734 C267.875774,54.0787621 266.456267,54.711875 265.011737,54.5483879 C262.816612,54.2999511 261.238509,52.3190527 261.486946,50.1239276 L261.52711,49.7740873 C261.817187,47.2487916 262.041073,45.6114981 262.198768,44.8622067 C263.45358,38.8999651 265.077213,36.0757365 265.898588,34.5699135 Z M272.432023,34.2423078 C272.432023,34.2423078 269.123149,37.0705608 267.612759,40.4815554 C266.102369,43.89255 266.595946,48.5221956 266.595946,48.5221956 C266.595946,48.5221956 269.998991,45.3598445 271.228484,41.9432348 C272.343605,38.8444492 272.425988,35.0318815 272.431665,34.3493814 L272.432023,34.2423078 Z M249.563987,25.4566233 C251.148258,19.177005 257.82469,19.177005 258.938595,21.1990108 C260.266871,23.6101526 255.528573,22.4476322 254.285313,25.7498688 C253.457348,27.9490366 253.457348,32.9742156 254.285313,40.8254059 L254.295999,40.8198703 C255.35031,40.2737168 256.647742,40.6856593 257.193895,41.7399695 C257.714233,42.7444447 257.367153,43.9803174 256.399948,44.5670339 L256.399948,44.5670339 L256.399948,44.5670339 C255.366616,45.3490961 254.936249,46.0505139 255.108847,46.6712873 C257.11538,53.8880766 260.594938,60.327204 258.473301,61.2822013 C256.597698,62.1264534 254.592302,59.5839801 253.315369,56.5189573 C252.312132,54.1108842 251.336474,50.456063 250.998699,49.4335211 C250.733342,48.7463897 248.571303,49.7000449 248.068752,47.9381426 C247.774313,46.905864 248.425606,45.7821611 250.022633,44.5670339 C249.11217,34.2236228 248.959288,27.853486 249.563987,25.4566233 Z M230.898588,34.5699135 C233.555026,29.6998738 238.160813,27.9643984 241.437123,28.5579017 C243.372465,29.1692452 244.515013,33.7365398 244.864768,42.2597857 C245.268195,53.4762354 244.770373,59.1942301 243.371302,59.41377 C239.401751,60.1729908 239.588086,47.3191616 238.898404,45.4468784 C238.345289,46.3414018 236.618838,48.82397 233.719318,52.8947734 C232.875774,54.0787621 231.456267,54.711875 230.011737,54.5483879 C227.816612,54.2999511 226.238509,52.3190527 226.486946,50.1239276 L226.52711,49.7740873 C226.817187,47.2487916 227.041073,45.6114981 227.198768,44.8622067 C228.45358,38.8999651 230.077213,36.0757365 230.898588,34.5699135 Z M237.432023,34.2423078 C237.432023,34.2423078 234.123149,37.0705608 232.612759,40.4815554 C231.102369,43.89255 231.595946,48.5221956 231.595946,48.5221956 C231.595946,48.5221956 234.998991,45.3598445 236.228484,41.9432348 C237.343605,38.8444492 237.425988,35.0318815 237.431665,34.3493814 L237.432023,34.2423078 Z M197,34.672092 C197,38.8522219 199.284885,39.4743711 203.729975,40.5941912 C206.406506,41.2684709 211.321059,42.2865376 218.473633,43.6483912 L218.473653,43.648286 C219.2874,43.8035527 219.821203,44.5890933 219.665937,45.40284 C219.622079,45.6326978 219.525051,45.8491065 219.382611,46.0347647 C217.095386,49.0063509 215.433935,50.9575675 214.397169,51.8875776 C209.326125,56.4364543 204.863888,56.9170945 205.746681,58.3616245 C208.096105,61.8580526 216.079065,56.0086973 218.917172,53.3808102 C221.645097,50.8549444 225,46.0365622 225,44.098115 C225,39.9555017 221.645097,39.6556634 208.407544,36.9448952 C205.686575,36.3876988 203.1651,35.7398829 200.84312,35.0014475 L200.842721,35.0027093 C200.579385,34.9195908 200.43329,34.6387338 200.516409,34.3753977 C200.551395,34.2645548 200.623905,34.1693639 200.721472,34.1061915 C211.320075,27.3210879 217.385117,23.1086397 218.917172,21.4697357 C221.17378,18.3083579 209.333421,23.3144586 205.746681,25.1067153 C202.15994,26.898972 197,30.4919621 197,34.672092 Z M181.030047,34.0642453 C182.030076,34.5065921 182.864206,35.2544642 183.412633,36.2004856 C184.269091,37.6777572 184.349936,38.8257341 183.65517,39.6444164 C182.235836,41.022464 179.763118,43.1603112 176.237017,46.0579581 C175.536392,46.6347806 175.086638,47.4608785 174.983031,48.3624683 C174.726144,50.5865689 174.679687,52.1856704 174.843941,53.1598051 C177.894382,51.3751444 182.311263,47.0664126 188.094585,40.2336097 C189.244372,39.4691117 190.796206,39.78145 191.560704,40.9312368 C192.185181,41.8704347 192.103487,43.1114607 191.361292,43.9607018 C189.845008,45.6956341 188.933202,46.687259 188.625873,46.9355766 C186.80955,48.943007 183.632834,51.6036586 179.095724,54.9175313 C176.645292,56.7125821 173.204301,56.1771033 171.412235,53.7244908 C170.743269,52.8089471 170.373627,51.7090171 170.353858,50.5752864 L170.301389,47.4517894 L169.444967,46.6975165 C168.903838,46.2209293 168.851516,45.3959067 169.328103,44.854777 C169.41315,44.7582125 169.512005,44.6747507 169.621462,44.6070982 L170.72469,43.9252212 C170.982131,43.7661038 171.185419,43.5328338 171.307846,43.2560569 L174.206743,36.7024177 C175.362435,34.0897032 178.417332,32.9085531 181.030047,34.0642453 Z M178.714289,36.7067466 C178.487605,36.5490469 178.176001,36.6049693 178.018301,36.8316528 L175.354824,40.660234 C175.230302,40.8392271 175.236132,41.0782741 175.369232,41.2509842 C175.537794,41.4697106 175.851754,41.5103765 176.070481,41.3418139 L180.118727,38.2220135 L178.79746,36.7794779 C178.772508,36.7522361 178.744614,36.7278435 178.714289,36.7067466 Z M166.389891,34.5875369 C169.938152,40.1322579 157.000614,54.6167423 153.534891,57.1783568 C153.534891,60.1750925 153.414117,64.4701841 153.172569,70.0636315 C153.112384,71.4576593 151.9335,72.5389402 150.539473,72.4787404 C149.445183,72.4314846 148.505981,71.6844974 148.213654,70.6289178 L147.744751,48.4132014 L146.497322,47.5600379 C145.357666,46.7805838 145.065664,45.2248374 145.845118,44.085181 C145.923061,43.9712188 146.010311,43.8639093 146.105972,43.7643532 L147.744751,42.0588546 L147.969077,38.4845379 C148.055561,37.1065372 149.24276,36.0595561 150.620761,36.1460401 C150.981291,36.1686671 151.332635,36.2691575 151.650603,36.4405925 C151.893283,36.5714348 152.135962,36.7022771 152.378642,36.8331194 C152.378642,36.8331194 162.238067,28.6944684 166.389891,34.5875369 Z M161.439677,38.5971081 C160.634696,37.4753367 159.072754,37.2185273 157.953222,38.0266276 L155.753574,39.6059729 C153.998066,40.8627856 152.923291,42.8607332 152.839299,45.0181219 C152.729875,47.8462942 152.795951,49.956488 153.037526,51.3487032 C155.426683,49.6095713 157.153786,48.076577 159.5883,44.8473729 C160.655203,43.4322041 161.390261,42.0830619 161.793476,40.7999464 C162.028923,40.0509207 161.897439,39.2350166 161.439677,38.5971081 Z M126.689837,20.1243593 C127.876839,20.3044707 128.888689,21.0804174 129.370119,22.1802537 L135.316223,35.740639 C135.427116,35.9935367 135.722027,36.1086541 135.974925,35.9977607 L142.577817,33.0278673 C143.089373,32.7977744 143.690598,33.0259451 143.920691,33.537501 C144.109388,33.957023 143.992558,34.4509899 143.635921,34.7415329 L141.842123,36.2028931 L136.88814,40.1155054 L140.159501,47.9508552 L140.295629,48.4967894 C140.579801,49.6364515 139.88629,50.7906973 138.746628,51.0748697 C138.155424,51.2222853 137.532492,51.1085009 137.033848,50.7683787 L136.88814,50.6595868 L132.52644,42.9422507 L124.786852,47.5098695 C123.831917,48.0734368 123.200519,49.0561702 123.084837,50.1589512 L122.47489,55.9735259 C122.380866,56.8698442 121.578036,57.5202325 120.681717,57.426209 C119.939609,57.348362 119.344839,56.777059 119.237169,56.0386881 C118.980004,54.274644 118.931974,52.4816102 119.093079,50.6595868 C119.625475,44.6384365 120.829197,35.4384618 122.704244,23.059663 C122.994365,21.1485624 124.778716,19.834373 126.689837,20.1243593 Z M125.997523,24.4458531 L123.576108,41.3973208 C123.49801,41.9440558 123.877915,42.4505829 124.42465,42.5286807 C124.660889,42.5624259 124.901408,42.5105774 125.102763,42.3825002 L129.898018,39.3323467 C130.483278,38.9600762 130.736969,38.235086 130.511512,37.5791262 L125.997523,24.4458531 Z" id="apesafari-logo"></path>
            </g>
        </g>
    </g>
</svg>